<?xml version="1.0" standalone="no"?>
<!DOCTYPE svg PUBLIC "-//W3C//DTD SVG 20010904//EN"
 "http://www.w3.org/TR/2001/REC-SVG-20010904/DTD/svg10.dtd">
<svg version="1.0" xmlns="http://www.w3.org/2000/svg"
 width="393.000000pt" height="393.000000pt" viewBox="0 0 393.000000 393.000000"
 preserveAspectRatio="xMidYMid meet">
<metadata>
Created by potrace 1.11, written by Peter Selinger 2001-2013
</metadata>
<g transform="translate(0.000000,393.000000) scale(0.100000,-0.100000)"
fill="#000000" stroke="none">
<path d="M868 3902 c-6 -39 -2 -165 6 -237 15 -123 104 -340 178 -433 12 -15
59 -63 104 -107 120 -119 247 -188 435 -237 83 -21 97 -21 990 -24 l907 -3 4
29 c2 15 3 74 1 130 -12 428 -300 781 -720 884 l-98 24 -901 1 -902 1 -4 -28z"/>
<path d="M1622 2725 c-419 -74 -787 -382 -939 -785 -29 -75 -58 -214 -68 -315
-3 -38 -8 -81 -9 -95 -2 -14 -7 -56 -11 -95 -4 -38 -8 -77 -10 -85 -1 -8 -6
-51 -10 -94 -4 -43 -8 -87 -10 -97 -2 -10 -7 -49 -10 -86 -4 -37 -8 -79 -10
-93 -2 -14 -7 -54 -10 -90 -3 -36 -8 -76 -10 -90 -3 -14 -7 -50 -10 -80 -5
-53 -12 -117 -20 -190 -2 -19 -7 -64 -11 -100 -3 -36 -8 -73 -9 -82 -2 -9 -7
-49 -10 -89 -4 -40 -8 -80 -10 -88 -1 -9 -6 -51 -10 -94 l-7 -79 88 7 c447 34
866 356 1031 794 40 106 59 212 88 486 6 59 10 92 20 170 2 22 7 69 10 105 10
108 8 105 46 107 19 2 189 5 379 7 190 2 354 6 365 9 70 14 97 21 155 39 380
120 682 415 804 783 30 92 57 223 47 229 -4 3 -405 4 -892 4 -672 0 -901 -4
-957 -13z"/>
</g>
</svg>
