<svg xmlns="http://www.w3.org/2000/svg" viewBox="0 0 152.84 196.36"><defs><style>.cls-1{isolation:isolate;}.cls-2{fill:#09a9e2;}.cls-2,.cls-3,.cls-4{fill-rule:evenodd;}.cls-3{fill:#00a651;}.cls-3,.cls-4{mix-blend-mode:darken;}.cls-4{fill:#f15a29;}</style></defs><title>Asset 3</title><g class="cls-1"><g id="Layer_2" data-name="Layer 2"><g id="Layer_1-2" data-name="Layer 1"><path class="cls-2" d="M21.68,0h83.49C119.81,0,132.45,6,141,15.65s13.11,23,11.5,37.58H69c-14.64,0-27.3-6-35.87-15.63S20.07,14.65,21.68,0Z"/><path class="cls-3" d="M9.23,112.87H92.7c14.64,0,28.59-6,39.3-15.61s18.19-23,19.8-37.6H68.29c-14.64,0-28.59,6-39.3,15.63S10.83,98.24,9.23,112.87Z"/><path class="cls-4" d="M68.29,59.66Q66,80.54,63.68,101.42t-4.61,41.73c-1.62,14.64-9.09,28-19.79,37.6S14.62,196.36,0,196.36H0q2.3-20.85,4.61-41.73t4.62-41.76A59.9,59.9,0,0,1,29,75.29c10.71-9.65,24.66-15.63,39.3-15.63Z"/></g></g></g></svg>